<svg xmlns="http://www.w3.org/2000/svg" width="50.068" height="32.377"><defs><style>.a,.b{fill:none;stroke:#3e3e3e}.a{stroke-miterlimit:10;stroke-width:1.417px}</style></defs><g transform="translate(-319.94 -298.138)"><g class="a" transform="translate(319.94 298.138)"><rect width="50.068" height="32.377" rx="2.232"/><rect x=".709" y=".709" width="48.65" height="30.96" rx="1.524" fill="none"/></g><path class="a" d="M320.978 304.991h48.214"/><circle class="b" cx="1.414" cy="1.414" r="1.414" transform="translate(323.512 300.595)"/><circle class="b" cx="1.414" cy="1.414" r="1.414" transform="translate(328.076 300.595)"/><circle class="b" cx="1.414" cy="1.414" r="1.414" transform="translate(332.639 300.595)"/><path d="M344.971 324.593a7.178 7.178 0 117.182-7.057 7.172 7.172 0 01-7.182 7.057zm-1.612-3.165a.783.783 0 00.039-.081q.69-2.062 1.376-4.127a.289.289 0 00-.012-.174q-.467-1.285-.941-2.569a.2.2 0 00-.133-.106c-.179-.029-.36-.045-.54-.059s-.272-.1-.27-.255a.232.232 0 01.274-.246c.257.01.513.034.77.045.343.015.686.04 1.028.032.529-.013 1.057-.054 1.586-.077.188-.008.3.088.3.241a.284.284 0 01-.3.26c-.226.018-.45.043-.7.066l2.346 6.977c.031-.04.045-.051.049-.064.332-1.112.669-2.224.992-3.339a3.053 3.053 0 00.088-1.358 3.964 3.964 0 00-.586-1.442 3.344 3.344 0 01-.535-1.186 1.143 1.143 0 01.848-1.28c.1-.017.191-.03.294-.046a6.455 6.455 0 00-9.791 1.251c.194 0 .369.006.543 0a76.174 76.174 0 001.586-.082.253.253 0 01.294.249c.006.145-.108.242-.279.256-.23.018-.46.043-.706.066zm3.782 2.125l-2.047-5.605c-.035.079-.054.113-.066.149q-.552 1.607-1.1 3.214c-.251.729-.5 1.459-.757 2.187-.042.117-.016.163.1.184.335.062.667.148 1.005.188a6.065 6.065 0 001.97-.088c.294-.063.586-.149.895-.229zm-5.023-.3l.044-.032-3.082-8.445c-.606.733-.773 3.109-.3 4.586a6.436 6.436 0 003.338 3.889zm6.1-.253l.048.026a6.453 6.453 0 003.185-5.194 6.03 6.03 0 00-.791-3.5 5.831 5.831 0 01-.054 1.522 9.1 9.1 0 01-.428 1.485q-.834 2.382-1.654 4.77z" fill="#3e3e3e"/></g></svg>